<?xml version="1.0" standalone="no"?>
<!DOCTYPE svg PUBLIC "-//W3C//DTD SVG 20010904//EN"
 "http://www.w3.org/TR/2001/REC-SVG-20010904/DTD/svg10.dtd">
<svg version="1.0" xmlns="http://www.w3.org/2000/svg"
 width="1000.000000pt" height="1000.000000pt" viewBox="0 0 1000.000000 1000.000000"
 preserveAspectRatio="xMidYMid meet">

<g transform="translate(0.000000,1000.000000) scale(0.100000,-0.100000)"
fill="#000000" stroke="none">
<path d="M4909 9069 c-37 -4 -75 -12 -86 -17 -31 -17 -182 -176 -219 -231 -72
-107 -84 -161 -63 -275 5 -32 8 -70 4 -85 -7 -32 -52 -104 -106 -171 -78 -97
-82 -110 -90 -269 -9 -159 -22 -255 -44 -307 -7 -18 -37 -63 -66 -101 -29 -37
-66 -97 -82 -133 -27 -57 -31 -80 -37 -195 -7 -120 -11 -140 -55 -265 l-48
-135 13 -95 c15 -112 10 -130 -67 -237 -26 -37 -88 -131 -138 -209 -73 -117
-113 -167 -217 -273 -79 -82 -137 -133 -155 -137 -15 -4 -61 -3 -101 3 -95 14
-122 6 -219 -64 -129 -93 -145 -98 -308 -95 -157 2 -204 -7 -318 -65 l-70 -35
-106 7 -107 7 -79 -56 c-111 -77 -156 -99 -264 -130 -52 -15 -121 -41 -154
-58 l-60 -30 -93 13 c-106 14 -118 10 -236 -76 -86 -64 -104 -72 -220 -101
-113 -28 -145 -46 -187 -107 -80 -118 -91 -309 -25 -445 43 -88 191 -224 311
-286 18 -9 70 -30 115 -47 46 -16 102 -38 124 -49 90 -42 277 -87 384 -94 147
-9 269 -26 308 -42 18 -7 70 -40 115 -73 133 -97 178 -113 331 -121 118 -7
143 -12 251 -49 l120 -42 120 6 c138 7 113 17 312 -121 65 -44 146 -96 181
-114 45 -24 104 -74 207 -174 79 -78 148 -153 154 -168 7 -19 7 -51 -1 -105
-6 -43 -8 -90 -5 -105 4 -15 32 -64 63 -109 91 -133 104 -167 104 -285 0 -85
5 -119 34 -217 19 -63 45 -142 59 -174 14 -32 37 -96 51 -143 13 -47 36 -119
50 -160 13 -41 37 -129 51 -195 17 -75 42 -153 67 -207 40 -86 40 -87 33 -165
-12 -119 -7 -139 59 -233 84 -117 107 -152 156 -231 64 -102 98 -141 170 -187
52 -34 60 -36 135 -36 59 0 97 6 145 23 143 52 205 96 261 184 19 28 73 105
122 171 121 163 127 176 134 304 5 91 13 126 49 234 48 138 50 150 39 283 l-8
90 56 80 c147 208 131 171 139 319 7 148 29 301 48 335 6 13 38 60 71 105 91
128 102 160 109 306 4 104 9 133 29 173 38 78 134 200 188 240 82 60 214 125
294 145 41 11 101 31 134 45 33 14 89 33 125 42 36 9 96 30 133 46 38 16 108
36 155 45 134 25 230 53 315 92 l78 35 77 -11 c98 -15 130 -7 218 59 38 28 92
63 119 77 48 26 56 26 195 24 164 -2 216 8 316 64 61 33 63 34 175 31 114 -2
114 -2 166 31 58 37 260 254 310 334 40 63 57 143 50 228 -9 108 -33 155 -122
249 -69 72 -94 90 -186 137 -59 29 -148 65 -199 79 -50 15 -115 38 -143 50
-29 13 -105 40 -170 59 -98 30 -134 36 -210 36 -109 0 -283 23 -329 44 -18 8
-73 44 -123 80 -122 89 -168 105 -309 109 -105 3 -125 7 -259 52 l-145 49 -95
-13 c-88 -12 -97 -12 -138 7 -24 11 -91 54 -149 95 -58 42 -141 96 -185 121
-44 24 -99 61 -123 81 -96 83 -194 257 -242 432 -28 101 -30 117 -21 169 22
119 15 147 -65 260 -51 72 -83 140 -114 244 -12 41 -36 102 -52 135 l-31 59
13 82 c7 45 10 94 6 110 -4 16 -38 75 -76 131 -88 133 -94 152 -87 283 8 134
-9 218 -64 324 l-41 79 7 102 c6 86 5 107 -10 136 -31 61 -75 108 -164 176
-47 37 -105 84 -129 104 -54 47 -134 86 -192 94 -25 3 -54 8 -65 9 -11 2 -50
-1 -86 -5z"/>
</g>
</svg>
