<?xml version="1.0" standalone="no"?>
<!DOCTYPE svg PUBLIC "-//W3C//DTD SVG 20010904//EN"
 "http://www.w3.org/TR/2001/REC-SVG-20010904/DTD/svg10.dtd">
<svg version="1.0" xmlns="http://www.w3.org/2000/svg"
 width="750.000000pt" height="1042.000000pt" viewBox="0 0 750.000000 1042.000000"
 preserveAspectRatio="xMidYMid meet">

<g transform="translate(0.000000,1042.000000) scale(0.100000,-0.100000)"
fill="#000000" stroke="none">
<path d="M190 5210 l0 -5030 930 0 930 0 2 2032 3 2032 1605 -2031 1605 -2032
1068 0 c852 -1 1067 2 1061 12 -4 6 -770 940 -1701 2074 -931 1135 -1693 2065
-1693 2067 0 2 177 6 393 9 302 3 416 8 497 21 751 121 1356 480 1800 1068
276 365 448 785 521 1273 10 67 14 219 14 585 0 543 -4 591 -66 850 -53 224
-120 405 -229 620 -336 659 -943 1160 -1660 1368 -118 35 -310 75 -445 93 -68
10 -637 13 -2362 16 l-2273 4 0 -5031z m4310 3246 c519 -99 816 -395 906 -901
23 -134 24 -411 0 -550 -53 -315 -194 -557 -409 -704 -77 -52 -224 -118 -327
-146 -203 -54 -224 -55 -1471 -55 l-1149 0 0 1183 c0 651 3 1187 7 1191 4 4
534 5 1178 4 1080 -4 1177 -5 1265 -22z"/>
</g>
</svg>
