<?xml version="1.0" standalone="no"?>
<!DOCTYPE svg PUBLIC "-//W3C//DTD SVG 20010904//EN"
 "http://www.w3.org/TR/2001/REC-SVG-20010904/DTD/svg10.dtd">
<svg version="1.0" xmlns="http://www.w3.org/2000/svg"
 width="750.000000pt" height="1042.000000pt" viewBox="0 0 750.000000 1042.000000"
 preserveAspectRatio="xMidYMid meet">

<g transform="translate(0.000000,1042.000000) scale(0.100000,-0.100000)"
fill="#000000" stroke="none">
<path d="M257 10274 c-4 -4 -7 -2279 -7 -5056 l0 -5048 890 0 890 0 0 2090 0
2089 1418 4 c1538 3 1442 0 1721 58 504 104 987 367 1360 740 419 419 681 942
778 1551 21 135 31 924 13 1098 -67 664 -358 1263 -837 1720 -370 353 -839
599 -1335 699 -283 58 -135 54 -2609 58 -1251 2 -2278 1 -2282 -3z m4333
-1787 c518 -103 816 -399 906 -902 21 -121 24 -410 5 -530 -76 -487 -326 -772
-780 -890 -167 -43 -217 -45 -1483 -45 l-1208 0 0 1188 c0 654 3 1192 7 1196
4 4 561 5 1238 3 1101 -3 1239 -5 1315 -20z"/>
</g>
</svg>
