<?xml version="1.0" standalone="no"?>
<!DOCTYPE svg PUBLIC "-//W3C//DTD SVG 20010904//EN"
 "http://www.w3.org/TR/2001/REC-SVG-20010904/DTD/svg10.dtd">
<svg version="1.0" xmlns="http://www.w3.org/2000/svg"
 width="750.000000pt" height="1042.000000pt" viewBox="0 0 750.000000 1042.000000"
 preserveAspectRatio="xMidYMid meet">

<g transform="translate(0.000000,1042.000000) scale(0.100000,-0.100000)"
fill="#000000" stroke="none">
<path d="M2915 10249 c-574 -56 -1117 -274 -1567 -631 -132 -104 -362 -334
-466 -465 -296 -374 -495 -800 -588 -1258 -61 -297 -57 -155 -61 -2595 -4
-2262 -2 -2444 32 -2672 95 -629 376 -1188 825 -1639 85 -86 202 -194 260
-240 388 -307 858 -516 1343 -599 224 -38 359 -42 1157 -38 723 4 773 6 905
26 522 81 968 271 1390 591 146 110 422 390 536 543 344 462 534 950 589 1517
14 146 14 4640 -1 4787 -69 718 -378 1362 -890 1860 -441 427 -994 698 -1624
796 -134 20 -175 21 -945 24 -443 1 -845 -2 -895 -7z m1532 -1760 c543 -60
935 -495 1002 -1111 15 -135 15 -4251 0 -4386 -67 -622 -463 -1055 -1017
-1112 -71 -8 -321 -10 -747 -8 -601 4 -645 6 -730 25 -219 50 -395 150 -549
313 -154 164 -262 378 -318 633 l-23 102 0 2240 0 2240 23 102 c120 546 476
898 968 962 102 13 1275 13 1391 0z"/>
</g>
</svg>
